<svg xmlns="http://www.w3.org/2000/svg" xmlns:xlink="http://www.w3.org/1999/xlink" width="500" zoomAndPan="magnify" viewBox="0 0 375 374.999991" height="500" preserveAspectRatio="xMidYMid meet" version="1.0"><defs><clipPath id="40e29ac16d"><path d="M 68 60 L 305 60 L 305 296.46875 L 68 296.46875 Z M 68 60 " clip-rule="nonzero"/></clipPath></defs><g clip-path="url(#40e29ac16d)"><path fill="#29233b" d="M 272.628906 216.28125 L 294.210938 209.066406 C 295.339844 208.707031 296.410156 208.214844 297.421875 207.597656 C 298.433594 206.976562 299.355469 206.246094 300.1875 205.40625 C 301.023438 204.566406 301.746094 203.636719 302.355469 202.621094 C 302.96875 201.605469 303.449219 200.53125 303.800781 199.402344 C 309.207031 181.253906 293.621094 168.886719 279.640625 173.574219 L 261.4375 179.691406 C 261.0625 179.816406 260.679688 179.90625 260.285156 179.957031 C 259.894531 180.003906 259.503906 180.015625 259.109375 179.988281 C 258.714844 179.960938 258.328125 179.894531 257.945312 179.792969 C 257.566406 179.6875 257.199219 179.546875 256.84375 179.371094 C 256.492188 179.195312 256.160156 178.984375 255.847656 178.742188 C 255.535156 178.5 255.25 178.230469 254.992188 177.933594 C 254.734375 177.632812 254.507812 177.3125 254.3125 176.96875 C 254.117188 176.628906 253.957031 176.269531 253.832031 175.894531 L 241.710938 139.894531 C 241.585938 139.519531 241.496094 139.136719 241.449219 138.746094 C 241.398438 138.355469 241.386719 137.960938 241.414062 137.566406 C 241.441406 137.175781 241.507812 136.789062 241.613281 136.40625 C 241.714844 136.027344 241.855469 135.660156 242.03125 135.304688 C 242.210938 134.953125 242.417969 134.621094 242.660156 134.308594 C 242.902344 134 243.171875 133.714844 243.472656 133.457031 C 243.769531 133.195312 244.089844 132.96875 244.433594 132.777344 C 244.777344 132.582031 245.136719 132.421875 245.511719 132.296875 L 263.714844 126.21875 C 277.613281 121.578125 282.636719 102.5 267.6875 91.234375 C 266.691406 90.515625 265.625 89.929688 264.488281 89.472656 C 263.351562 89.015625 262.175781 88.699219 260.960938 88.527344 C 259.75 88.355469 258.53125 88.328125 257.3125 88.449219 C 256.089844 88.574219 254.902344 88.839844 253.75 89.25 L 232.417969 96.339844 C 232.105469 96.445312 231.785156 96.519531 231.457031 96.5625 C 231.128906 96.605469 230.800781 96.617188 230.46875 96.59375 C 230.140625 96.570312 229.816406 96.515625 229.496094 96.429688 C 229.175781 96.34375 228.867188 96.226562 228.574219 96.082031 C 228.277344 95.933594 227.996094 95.757812 227.734375 95.554688 C 227.472656 95.355469 227.234375 95.128906 227.015625 94.878906 C 226.800781 94.628906 226.609375 94.363281 226.445312 94.074219 C 226.28125 93.789062 226.144531 93.488281 226.042969 93.175781 L 219.367188 73.210938 C 214.722656 59.328125 195.628906 54.304688 184.351562 69.246094 C 183.636719 70.238281 183.050781 71.304688 182.589844 72.441406 C 182.132812 73.578125 181.816406 74.75 181.644531 75.964844 C 181.472656 77.175781 181.445312 78.394531 181.570312 79.613281 C 181.691406 80.832031 181.957031 82.019531 182.367188 83.171875 L 189.464844 104.273438 C 189.589844 104.648438 189.675781 105.03125 189.726562 105.421875 C 189.777344 105.8125 189.789062 106.207031 189.761719 106.601562 C 189.734375 106.992188 189.667969 107.378906 189.5625 107.761719 C 189.460938 108.140625 189.320312 108.507812 189.144531 108.863281 C 188.964844 109.214844 188.757812 109.546875 188.515625 109.859375 C 188.273438 110.167969 188 110.453125 187.703125 110.710938 C 187.40625 110.972656 187.082031 111.199219 186.738281 111.390625 C 186.398438 111.585938 186.039062 111.746094 185.664062 111.871094 L 147.648438 124.53125 C 147.273438 124.65625 146.890625 124.746094 146.5 124.796875 C 146.109375 124.84375 145.714844 124.855469 145.320312 124.828125 C 144.929688 124.800781 144.539062 124.734375 144.160156 124.632812 C 143.777344 124.527344 143.410156 124.386719 143.058594 124.210938 C 142.707031 124.035156 142.371094 123.824219 142.0625 123.582031 C 141.75 123.339844 141.464844 123.070312 141.207031 122.773438 C 140.949219 122.472656 140.71875 122.152344 140.527344 121.808594 C 140.332031 121.46875 140.171875 121.109375 140.046875 120.734375 L 133.667969 101.699219 C 129.023438 87.816406 109.933594 82.792969 98.65625 97.730469 C 97.9375 98.726562 97.351562 99.792969 96.894531 100.929688 C 96.433594 102.0625 96.121094 103.238281 95.945312 104.453125 C 95.773438 105.664062 95.75 106.878906 95.871094 108.097656 C 95.992188 109.320312 96.257812 110.503906 96.667969 111.660156 L 104.101562 133.816406 C 104.21875 134.132812 104.304688 134.457031 104.355469 134.789062 C 104.40625 135.121094 104.421875 135.453125 104.40625 135.789062 C 104.390625 136.125 104.34375 136.457031 104.257812 136.785156 C 104.175781 137.109375 104.0625 137.425781 103.917969 137.726562 C 103.769531 138.03125 103.597656 138.316406 103.394531 138.585938 C 103.191406 138.851562 102.960938 139.097656 102.710938 139.320312 C 102.457031 139.542969 102.1875 139.738281 101.894531 139.90625 C 101.601562 140.074219 101.296875 140.210938 100.976562 140.316406 L 79.523438 147.492188 C 78.394531 147.921875 77.324219 148.464844 76.308594 149.125 C 75.296875 149.785156 74.367188 150.542969 73.519531 151.402344 C 72.671875 152.261719 71.921875 153.203125 71.273438 154.222656 C 70.628906 155.242188 70.097656 156.316406 69.679688 157.449219 C 65.457031 172.601562 75.71875 183.660156 87.378906 183.953125 C 89.601562 184.007812 91.769531 183.6875 93.882812 182.984375 L 112.085938 176.863281 C 112.460938 176.738281 112.84375 176.652344 113.234375 176.601562 C 113.628906 176.550781 114.019531 176.539062 114.414062 176.566406 C 114.808594 176.59375 115.195312 176.660156 115.574219 176.765625 C 115.957031 176.867188 116.324219 177.007812 116.675781 177.1875 C 117.03125 177.363281 117.363281 177.570312 117.675781 177.8125 C 117.988281 178.054688 118.273438 178.324219 118.53125 178.625 C 118.789062 178.921875 119.015625 179.242188 119.210938 179.585938 C 119.40625 179.929688 119.566406 180.289062 119.6875 180.664062 L 131.894531 216.703125 C 132.019531 217.078125 132.109375 217.460938 132.160156 217.851562 C 132.207031 218.246094 132.21875 218.636719 132.191406 219.03125 C 132.164062 219.425781 132.097656 219.8125 131.996094 220.191406 C 131.890625 220.574219 131.75 220.9375 131.574219 221.292969 C 131.398438 221.644531 131.1875 221.976562 130.945312 222.289062 C 130.703125 222.601562 130.433594 222.886719 130.132812 223.144531 C 129.835938 223.402344 129.515625 223.628906 129.171875 223.824219 C 128.828125 224.019531 128.46875 224.175781 128.09375 224.300781 L 107.566406 231.179688 C 106.4375 231.609375 105.367188 232.15625 104.355469 232.816406 C 103.34375 233.476562 102.414062 234.234375 101.566406 235.09375 C 100.714844 235.953125 99.96875 236.890625 99.320312 237.910156 C 98.671875 238.929688 98.140625 240.007812 97.726562 241.140625 C 93.503906 256.292969 103.765625 267.347656 115.421875 267.644531 C 117.675781 267.707031 119.871094 267.386719 122.011719 266.675781 L 141.144531 260.257812 C 141.457031 260.152344 141.777344 260.078125 142.105469 260.035156 C 142.433594 259.992188 142.765625 259.984375 143.09375 260.003906 C 143.425781 260.027344 143.75 260.082031 144.070312 260.167969 C 144.386719 260.253906 144.695312 260.371094 144.992188 260.519531 C 145.289062 260.664062 145.566406 260.839844 145.828125 261.042969 C 146.089844 261.246094 146.332031 261.46875 146.546875 261.71875 C 146.765625 261.96875 146.957031 262.238281 147.121094 262.523438 C 147.285156 262.8125 147.417969 263.109375 147.523438 263.425781 L 154.195312 283.386719 C 154.503906 284.316406 154.882812 285.214844 155.332031 286.085938 C 155.777344 286.957031 156.289062 287.789062 156.863281 288.578125 C 157.4375 289.371094 158.070312 290.117188 158.757812 290.8125 C 159.449219 291.507812 160.1875 292.144531 160.972656 292.726562 C 161.761719 293.308594 162.585938 293.828125 163.453125 294.28125 C 164.320312 294.738281 165.21875 295.125 166.144531 295.441406 C 167.070312 295.757812 168.015625 296.003906 168.980469 296.175781 C 169.941406 296.347656 170.914062 296.445312 171.894531 296.46875 C 173.585938 296.472656 175.253906 296.277344 176.898438 295.878906 C 178.539062 295.484375 180.113281 294.898438 181.617188 294.121094 C 183.121094 293.347656 184.511719 292.40625 185.785156 291.296875 C 187.0625 290.1875 188.191406 288.945312 189.167969 287.566406 C 189.90625 286.570312 190.515625 285.5 190.992188 284.355469 C 191.46875 283.210938 191.796875 282.027344 191.980469 280.800781 C 192.164062 279.578125 192.199219 278.347656 192.078125 277.113281 C 191.960938 275.878906 191.695312 274.679688 191.28125 273.511719 L 184.140625 252.410156 C 184.015625 252.035156 183.929688 251.652344 183.878906 251.261719 C 183.828125 250.871094 183.816406 250.476562 183.84375 250.082031 C 183.871094 249.691406 183.9375 249.304688 184.042969 248.921875 C 184.148438 248.542969 184.285156 248.175781 184.464844 247.820312 C 184.640625 247.46875 184.851562 247.136719 185.09375 246.824219 C 185.335938 246.515625 185.605469 246.230469 185.902344 245.96875 C 186.203125 245.710938 186.523438 245.484375 186.867188 245.289062 C 187.210938 245.097656 187.570312 244.9375 187.945312 244.8125 L 225.957031 232.152344 C 226.332031 232.027344 226.714844 231.9375 227.105469 231.886719 C 227.496094 231.839844 227.890625 231.828125 228.285156 231.855469 C 228.679688 231.882812 229.066406 231.949219 229.445312 232.050781 C 229.828125 232.15625 230.195312 232.296875 230.546875 232.472656 C 230.902344 232.648438 231.234375 232.859375 231.546875 233.101562 C 231.855469 233.34375 232.140625 233.613281 232.402344 233.910156 C 232.660156 234.210938 232.886719 234.53125 233.082031 234.875 C 233.277344 235.214844 233.433594 235.574219 233.558594 235.949219 L 239.9375 254.984375 C 240.246094 255.910156 240.625 256.804688 241.074219 257.671875 C 241.519531 258.539062 242.03125 259.367188 242.605469 260.15625 C 243.179688 260.945312 243.808594 261.683594 244.496094 262.378906 C 245.183594 263.070312 245.921875 263.707031 246.707031 264.285156 C 247.492188 264.867188 248.316406 265.382812 249.179688 265.835938 C 250.042969 266.289062 250.9375 266.675781 251.859375 266.992188 C 252.785156 267.308594 253.726562 267.554688 254.6875 267.726562 C 255.648438 267.902344 256.617188 268 257.59375 268.023438 C 259.316406 268.011719 261.015625 267.785156 262.6875 267.347656 C 264.355469 266.914062 265.945312 266.277344 267.457031 265.445312 C 268.96875 264.613281 270.355469 263.609375 271.617188 262.429688 C 272.878906 261.253906 273.976562 259.9375 274.910156 258.488281 C 275.613281 257.507812 276.1875 256.457031 276.640625 255.339844 C 277.089844 254.21875 277.402344 253.0625 277.574219 251.871094 C 277.746094 250.675781 277.777344 249.480469 277.660156 248.28125 C 277.546875 247.078125 277.289062 245.910156 276.894531 244.769531 L 269.460938 222.613281 C 269.359375 222.300781 269.285156 221.984375 269.246094 221.65625 C 269.207031 221.332031 269.199219 221.003906 269.222656 220.675781 C 269.246094 220.351562 269.300781 220.027344 269.386719 219.710938 C 269.476562 219.394531 269.59375 219.089844 269.738281 218.796875 C 269.886719 218.503906 270.058594 218.226562 270.261719 217.964844 C 270.460938 217.707031 270.6875 217.46875 270.933594 217.253906 C 271.183594 217.039062 271.449219 216.847656 271.734375 216.683594 C 272.019531 216.523438 272.316406 216.386719 272.628906 216.28125 Z M 212.144531 196.277344 L 177.554688 207.84375 C 177.0625 208.007812 176.5625 208.125 176.050781 208.191406 C 175.539062 208.257812 175.023438 208.273438 174.507812 208.238281 C 173.992188 208.203125 173.484375 208.121094 172.988281 207.984375 C 172.488281 207.851562 172.007812 207.667969 171.542969 207.441406 C 171.082031 207.210938 170.644531 206.9375 170.234375 206.625 C 169.828125 206.308594 169.453125 205.957031 169.113281 205.566406 C 168.773438 205.175781 168.472656 204.757812 168.21875 204.3125 C 167.960938 203.863281 167.75 203.394531 167.585938 202.90625 L 156.6875 170.28125 C 156.523438 169.796875 156.40625 169.304688 156.339844 168.800781 C 156.269531 168.292969 156.25 167.789062 156.28125 167.277344 C 156.3125 166.769531 156.390625 166.269531 156.519531 165.773438 C 156.648438 165.28125 156.824219 164.804688 157.042969 164.347656 C 157.265625 163.886719 157.527344 163.453125 157.835938 163.046875 C 158.140625 162.636719 158.480469 162.261719 158.859375 161.921875 C 159.238281 161.578125 159.648438 161.277344 160.085938 161.015625 C 160.523438 160.753906 160.980469 160.535156 161.460938 160.363281 L 196.054688 148.757812 C 196.542969 148.589844 197.042969 148.476562 197.554688 148.40625 C 198.066406 148.339844 198.582031 148.324219 199.097656 148.359375 C 199.613281 148.394531 200.121094 148.480469 200.621094 148.613281 C 201.117188 148.746094 201.597656 148.929688 202.0625 149.160156 C 202.527344 149.386719 202.960938 149.660156 203.371094 149.976562 C 203.78125 150.292969 204.15625 150.644531 204.492188 151.03125 C 204.832031 151.421875 205.132812 151.839844 205.390625 152.289062 C 205.644531 152.738281 205.855469 153.207031 206.019531 153.695312 L 216.917969 186.234375 C 217.09375 186.71875 217.21875 187.21875 217.292969 187.730469 C 217.367188 188.242188 217.394531 188.753906 217.367188 189.269531 C 217.34375 189.785156 217.265625 190.292969 217.140625 190.792969 C 217.015625 191.296875 216.839844 191.78125 216.617188 192.246094 C 216.398438 192.710938 216.132812 193.152344 215.824219 193.566406 C 215.515625 193.980469 215.167969 194.363281 214.785156 194.707031 C 214.398438 195.054688 213.984375 195.359375 213.542969 195.625 C 213.097656 195.886719 212.632812 196.105469 212.144531 196.277344 Z M 212.144531 196.277344 " fill-opacity="1" fill-rule="nonzero"/></g></svg>