<svg xmlns="http://www.w3.org/2000/svg" xmlns:xlink="http://www.w3.org/1999/xlink" width="1920" zoomAndPan="magnify" viewBox="0 0 1440 809.999993" height="1080" preserveAspectRatio="xMidYMid meet" version="1.0"><defs><clipPath id="a302fa23e3"><path d="M 0 277 L 542 277 L 542 401.089844 L 0 401.089844 Z M 0 277 " clip-rule="nonzero"/></clipPath><clipPath id="877f7c5b66"><path d="M 531 274 L 1146 274 L 1146 404.570312 L 531 404.570312 Z M 531 274 " clip-rule="nonzero"/></clipPath><clipPath id="27bcae501b"><path d="M 1137 270 L 1440 270 L 1440 401.832031 L 1137 401.832031 Z M 1137 270 " clip-rule="nonzero"/></clipPath><clipPath id="0db142454e"><path d="M 0 353.597656 L 1440 353.597656 L 1440 810 L 0 810 Z M 0 353.597656 " clip-rule="nonzero"/></clipPath></defs><g clip-path="url(#a302fa23e3)"><path fill="#90d2ff" d="M 491.058594 304.941406 C 458.175781 321.84375 417.738281 323.269531 383.753906 308.71875 C 363.585938 300.085938 345.617188 286.175781 324.382812 280.660156 C 288.417969 271.316406 251.324219 287.609375 217.5625 303.132812 C 183.800781 318.660156 146.058594 334.109375 110.554688 323.140625 C 96.636719 318.84375 84.269531 310.753906 71.410156 303.90625 C 37.679688 285.9375 -3.707031 276.832031 -39.265625 288.3125 L -39.265625 401.097656 L 541.621094 401.097656 L 541.621094 282.535156 C 536.933594 283.082031 532.296875 284.078125 527.828125 285.640625 C 514.738281 290.203125 503.378906 298.605469 491.058594 304.941406 Z M 491.058594 304.941406 " fill-opacity="1" fill-rule="nonzero"/></g><g clip-path="url(#877f7c5b66)"><path fill="#90d2ff" d="M 1091.800781 302.863281 C 1057.058594 320.746094 1014.332031 322.253906 978.425781 306.859375 C 957.113281 297.726562 938.125 283.015625 915.691406 277.179688 C 877.691406 267.296875 838.5 284.53125 802.828125 300.953125 C 767.15625 317.375 727.277344 333.71875 689.761719 322.117188 C 675.058594 317.570312 661.988281 309.015625 648.402344 301.769531 C 612.761719 282.761719 569.035156 273.128906 531.460938 285.273438 L 531.460938 404.578125 L 1145.222656 404.578125 L 1145.222656 279.164062 C 1140.273438 279.742188 1135.375 280.792969 1130.652344 282.449219 C 1116.820312 287.277344 1104.820312 296.164062 1091.800781 302.863281 Z M 1091.800781 302.863281 " fill-opacity="1" fill-rule="nonzero"/></g><g clip-path="url(#27bcae501b)"><path fill="#90d2ff" d="M 1704.984375 299.015625 C 1669.777344 317.09375 1626.476562 318.617188 1590.085938 303.054688 C 1568.492188 293.824219 1549.246094 278.949219 1526.511719 273.050781 C 1488 263.058594 1448.28125 280.480469 1412.128906 297.082031 C 1375.976562 313.683594 1335.5625 330.207031 1297.542969 318.476562 C 1282.644531 313.882812 1269.398438 305.230469 1255.628906 297.910156 C 1219.511719 278.695312 1175.195312 268.957031 1137.117188 281.234375 L 1137.117188 401.839844 L 1759.128906 401.839844 L 1759.128906 275.058594 C 1754.113281 275.640625 1749.144531 276.703125 1744.359375 278.375 C 1730.34375 283.257812 1718.179688 292.242188 1704.984375 299.015625 Z M 1704.984375 299.015625 " fill-opacity="1" fill-rule="nonzero"/></g><g clip-path="url(#0db142454e)"><path fill="#90d2ff" d="M -63.523438 353.597656 L 1584.003906 353.597656 L 1584.003906 840.636719 L -63.523438 840.636719 Z M -63.523438 353.597656 " fill-opacity="1" fill-rule="nonzero"/></g></svg>